<svg version="1.1" id="Слой_1" xmlns="http://www.w3.org/2000/svg" xmlns:xlink="http://www.w3.org/1999/xlink" x="0px" y="0px"
	 width="24px" height="72px" viewBox="-15.5 20.5 24 72" enable-background="new -15.5 20.5 24 72" xml:space="preserve">
<polygon fill="#FFBC00" points="-3.5,21.087 -0.322,29.329 8.5,29.806 1.643,35.374 3.916,43.913 -3.5,39.11 -10.916,43.913 
	-8.643,35.374 -15.5,29.806 -6.678,29.329 "/>
<polygon fill="#D9D9D9" points="-3.5,45.088 -0.322,53.329 8.5,53.806 1.643,59.376 3.916,67.911 -3.5,63.11 -10.916,67.911 
	-8.643,59.376 -15.5,53.806 -6.678,53.329 "/>
<polygon fill="#FF8800" points="-3.5,69.087 -0.322,77.329 8.5,77.806 1.643,83.374 3.916,91.913 -3.5,87.11 -10.916,91.913 
	-8.643,83.374 -15.5,77.806 -6.678,77.329 "/>
</svg>
